HIERARCHY
ROOT Hips
{
	OFFSET 0.000000 0.000000 0.000000
	CHANNELS 6 Xposition Yposition Zposition Xrotation Yrotation Zrotation
	JOINT LeftUpLeg_virtual
	{
		OFFSET 0.000000 0.000000 0.000000
		CHANNELS 3 Xrotation Yrotation Zrotation
		JOINT LeftUpLeg
		{
			OFFSET 10.205400 -3.823500 0.155100
			CHANNELS 3 Xrotation Yrotation Zrotation
			JOINT LeftLeg
			{
				OFFSET 0.708757 -12.982077 0.567790
				CHANNELS 3 Xrotation Yrotation Zrotation
				JOINT LeftFoot
				{
					OFFSET -0.708756 -10.717838 -2.184338
					CHANNELS 3 Xrotation Yrotation Zrotation
					JOINT LeftToeBase
					{
						OFFSET 0.108149 -7.191104 7.560241
						CHANNELS 3 Xrotation Yrotation Zrotation
						JOINT LeftToe_End
						{
							OFFSET 0.070230 0.081724 4.490308
							CHANNELS 3 Xrotation Yrotation Zrotation
							End Site
							{
								OFFSET 0 0 0
							}
						}
					}
				}
			}
		}
	}
	JOINT RightUpLeg_virtual
	{
		OFFSET 0.000000 0.000000 0.000000
		CHANNELS 3 Xrotation Yrotation Zrotation
		JOINT RightUpLeg
		{
			OFFSET -10.205400 -3.823500 0.005500
			CHANNELS 3 Xrotation Yrotation Zrotation
			JOINT RightLeg
			{
				OFFSET -0.708756 -12.982134 0.610632
				CHANNELS 3 Xrotation Yrotation Zrotation
				JOINT RightFoot
				{
					OFFSET 0.708754 -10.717769 -1.945823
					CHANNELS 3 Xrotation Yrotation Zrotation
					JOINT RightToeBase
					{
						OFFSET -0.108140 -7.191069 7.372968
						CHANNELS 3 Xrotation Yrotation Zrotation
						JOINT RightToe_End
						{
							OFFSET -0.070227 0.081735 4.479403
							CHANNELS 3 Xrotation Yrotation Zrotation
							End Site
							{
								OFFSET 0 0 0
							}
						}
					}
				}
			}
		}
	}
	JOINT Spine_virtual
	{
		OFFSET 0.000000 0.000000 0.000000
		CHANNELS 3 Xrotation Yrotation Zrotation
		JOINT Spine
		{
			OFFSET 0.000000 6.876099 0.125700
			CHANNELS 3 Xrotation Yrotation Zrotation
			JOINT Spine1
			{
				OFFSET 0.000000 5.730043 0.104720
				CHANNELS 3 Xrotation Yrotation Zrotation
				JOINT Spine1_split
				{
					OFFSET 0.000000 5.730043 0.104720
					CHANNELS 3 Xrotation Yrotation Zrotation
					JOINT Spine2
					{
						OFFSET 0.000000 5.730043 0.104720
						CHANNELS 3 Xrotation Yrotation Zrotation
						JOINT Neck_virtual
						{
							OFFSET 0.000000 0.000000 0.000000
							CHANNELS 3 Xrotation Yrotation Zrotation
							JOINT Neck
							{
								OFFSET 0.000000 10.314075 0.188496
								CHANNELS 3 Xrotation Yrotation Zrotation
								JOINT Head
								{
									OFFSET 0.000000 7.643700 -2.377400
									CHANNELS 3 Xrotation Yrotation Zrotation
									JOINT HeadTop_End
									{
										OFFSET 0.000000 43.788605 -13.619600
										CHANNELS 3 Xrotation Yrotation Zrotation
										End Site
										{
											OFFSET 0 0 0
										}
									}
								}
							}
						}
						JOINT LeftShoulder_virtual
						{
							OFFSET 0.000000 0.000000 0.000000
							CHANNELS 3 Xrotation Yrotation Zrotation
							JOINT LeftShoulder
							{
								OFFSET 2.196100 4.412489 0.087492
								CHANNELS 3 Xrotation Yrotation Zrotation
								JOINT LeftShoulder_split
								{
									OFFSET 2.196100 4.412489 0.087492
									CHANNELS 3 Xrotation Yrotation Zrotation
									JOINT LeftArm
									{
										OFFSET 8.771219 -2.981674 -0.026999
										CHANNELS 3 Xrotation Yrotation Zrotation
										JOINT LeftForeArm
										{
											OFFSET 8.512804 0.000000 -0.000000
											CHANNELS 3 Xrotation Yrotation Zrotation
											JOINT LeftHand
											{
												OFFSET 18.484802 0.000000 -0.000000
												CHANNELS 3 Xrotation Yrotation Zrotation
												End Site
												{
													OFFSET 0 0 0
												}
											}
										}
									}
								}
							}
						}
						JOINT RightShoulder_virtual
						{
							OFFSET 0.000000 0.000000 0.000000
							CHANNELS 3 Xrotation Yrotation Zrotation
							JOINT RightShoulder
							{
								OFFSET -2.196100 4.412496 0.070690
								CHANNELS 3 Xrotation Yrotation Zrotation
								JOINT RightShoulder_split
								{
									OFFSET -2.196100 4.412496 0.070690
									CHANNELS 3 Xrotation Yrotation Zrotation
									JOINT RightArm
									{
										OFFSET -8.771282 -2.981682 -0.094208
										CHANNELS 3 Xrotation Yrotation Zrotation
										JOINT RightForeArm
										{
											OFFSET -8.494598 0.000000 0.000000
											CHANNELS 3 Xrotation Yrotation Zrotation
											JOINT RightHand
											{
												OFFSET -18.483803 0.000000 0.000001
												CHANNELS 3 Xrotation Yrotation Zrotation
												End Site
												{
													OFFSET 0 0 0
												}
											}
										}
									}
								}
							}
						}
					}
				}
			}
		}
	}
}
MOTION
Frames: 9
Frame Time: 0.03333333
-0.857788 27.080482 0.008392 0.000000 0.000000 0.000000 10.499807 67.123773 -12.240306 -11.970689 -3.590505 34.419434 58.548190 -13.199282 9.481521 -45.695386 12.942505 -20.990558 -9.492887 0.000049 0.000019 0.000000 0.000000 0.000000 10.499807 67.123773 -12.240306 -40.816124 15.060272 -25.256141 50.915338 13.100980 -6.092457 -16.023952 -1.810098 31.553299 -5.169239 0.000015 -0.000011 0.000000 0.000000 0.000000 10.499807 67.123773 -12.240306 1.870781 -1.802697 0.569416 2.147805 -0.574858 -0.033125 0.000000 0.000000 0.000000 0.000000 0.000000 0.000000 2.136797 -0.620512 -0.146674 -4.452903 -10.379965 0.183235 -3.546769 -51.462344 5.883609 0.000000 0.000000 0.000000 2.136797 -0.620512 -0.146674 1.127380 -10.640379 -5.486633 0.000000 0.000000 0.000000 -1.802090 -47.065457 -47.163149 179.999978 -73.678125 179.999991 0.000000 0.000000 0.000000 2.136797 -0.620512 -0.146674 0.469308 -2.168325 7.105760 0.000000 0.000000 0.000000 -29.988369 -15.740002 41.708407 180.000005 70.652850 179.999978 0.000000 0.000000 0.000000 
-0.502280 28.374580 0.008520 0.000000 0.000000 0.000000 7.821195 63.402740 -9.109697 -8.610650 1.778844 32.166875 52.204597 -12.539034 9.825969 -38.509826 12.113393 -21.702547 -12.947329 -0.000003 0.000004 0.000000 0.000000 0.000000 7.821195 63.402740 -9.109697 -39.601587 12.502527 -24.638900 39.248480 12.058535 -6.328081 -6.595047 5.892491 33.596253 -5.002371 0.000003 0.000008 0.000000 0.000000 0.000000 7.821195 63.402740 -9.109697 1.870784 -2.366016 0.143380 2.147877 -0.743413 -0.181092 0.000000 0.000000 0.000000 0.000000 0.000000 0.000000 2.123234 -0.800160 -0.306782 -3.798645 -9.756333 0.643418 -3.007117 -47.953136 6.067482 0.000000 0.000000 0.000000 2.123234 -0.800160 -0.306782 1.197093 -10.412342 -4.302571 0.000000 0.000000 0.000000 -5.193352 -45.854253 -50.234129 179.999964 -72.243963 179.999964 0.000000 0.000000 0.000000 2.123234 -0.800160 -0.306782 0.488558 -1.683391 7.375609 0.000000 0.000000 0.000000 -29.457226 -13.864260 41.538198 179.999964 68.998352 179.999991 0.000000 0.000000 0.000000 
0.190974 30.288685 -0.011721 0.000000 0.000000 0.000000 6.466104 57.470503 -6.802459 -5.771811 6.864031 28.867777 45.799567 -10.828923 8.130689 -24.926234 9.673508 -22.138583 -21.524670 0.000053 0.000001 0.000000 0.000000 0.000000 6.466104 57.470503 -6.802459 -38.415163 9.148232 -22.578975 23.237238 11.662872 -6.191185 9.735122 15.089370 31.373545 -11.707223 0.000089 0.000015 0.000000 0.000000 0.000000 6.466104 57.470503 -6.802459 0.921832 -2.817221 -0.945044 1.369296 -0.750844 -0.544705 0.000000 0.000000 0.000000 0.000000 0.000000 0.000000 1.328520 -0.799754 -0.660571 -2.260078 -8.831645 1.629505 -0.070822 -42.200758 6.263263 0.000000 0.000000 0.000000 1.328520 -0.799754 -0.660571 1.264984 -9.251278 -1.937970 0.000000 0.000000 0.000000 -9.747304 -45.080997 -53.432898 179.999991 -70.543150 179.999991 0.000000 0.000000 0.000000 1.328520 -0.799754 -0.660571 0.565219 -0.209077 8.822414 0.000000 0.000000 0.000000 -28.956829 -9.525886 37.940540 179.999991 68.387194 179.999978 0.000000 0.000000 0.000000 
0.567888 32.186951 -0.186274 0.000000 0.000000 0.000000 5.827526 50.274236 -4.443529 -5.204909 8.010030 23.803143 42.331218 -5.553333 6.102803 -6.519764 5.673379 -21.948299 -25.657105 0.793058 -7.168652 0.000000 0.000000 0.000000 5.827526 50.274236 -4.443529 -38.923035 6.735330 -20.989781 15.325696 11.761264 -3.865528 24.607508 14.332565 23.794246 -4.471010 -0.162054 2.885896 0.000000 0.000000 0.000000 5.827526 50.274236 -4.443529 0.032713 -2.998903 -2.375668 0.605337 -0.473778 -0.931585 0.000000 0.000000 0.000000 0.000000 0.000000 0.000000 0.553922 -0.512514 -1.019411 -1.188954 -7.795692 2.406636 1.667985 -36.088261 5.848700 0.000000 0.000000 0.000000 0.553922 -0.512514 -1.019411 1.307740 -8.658853 0.291269 0.000000 0.000000 0.000000 -14.937111 -42.074628 -55.476890 179.999991 -67.700138 179.999991 0.000000 0.000000 0.000000 0.553922 -0.512514 -1.019411 0.601174 2.797518 9.668244 0.000000 0.000000 0.000000 -29.462362 -5.853212 33.684403 179.999991 67.689873 179.999991 0.000000 0.000000 0.000000 
0.644916 34.613365 -0.904333 0.000000 0.000000 0.000000 4.799084 43.259065 -4.214215 -7.406747 6.825735 19.049391 38.552695 -2.362394 4.826221 13.941063 0.547328 -15.422844 -34.990683 8.662289 -12.110443 0.000000 0.000000 0.000000 4.799084 43.259065 -4.214215 -37.398906 1.965983 -19.254740 20.185524 11.550769 -1.307655 18.176469 2.006632 17.483804 2.020087 -0.000045 0.000003 0.000000 0.000000 0.000000 4.799084 43.259065 -4.214215 0.591309 -2.292595 -0.348106 0.985248 -0.223869 -0.482493 0.000000 0.000000 0.000000 0.000000 0.000000 0.000000 0.956667 -0.257991 -0.571311 -1.943179 -6.815091 2.080529 1.160352 -31.252944 4.601424 0.000000 0.000000 0.000000 0.956667 -0.257991 -0.571311 1.144505 -7.246890 -0.418708 0.000000 0.000000 0.000000 -17.263593 -39.941252 -52.918728 179.999991 -66.541335 179.999991 0.000000 0.000000 0.000000 0.956667 -0.257991 -0.571311 0.608130 4.290606 9.147256 0.000000 0.000000 0.000000 -30.800704 -1.171635 31.921664 179.999964 67.287643 179.999991 0.000000 0.000000 0.000000 
0.480643 36.560398 -1.546701 0.000000 0.000000 0.000000 2.653995 37.590086 -3.215785 -13.814322 4.402626 17.441376 50.608840 -3.381437 3.941490 12.635308 0.619555 -12.342460 -4.746319 1.561420 -10.334052 0.000000 0.000000 0.000000 2.653995 37.590086 -3.215785 -33.858450 -1.600239 -18.683166 28.860387 8.358319 1.169287 8.963559 -0.019780 11.745915 3.197252 -0.000009 -0.000001 0.000000 0.000000 0.000000 2.653995 37.590086 -3.215785 1.913637 -1.342449 0.879452 2.112716 0.216710 -0.015670 0.000000 0.000000 0.000000 0.000000 0.000000 0.000000 2.107107 0.172488 -0.130753 -2.819593 -6.059512 1.438322 0.460372 -28.076121 3.556614 0.000000 0.000000 0.000000 2.107107 0.172488 -0.130753 0.961107 -5.437047 -1.714560 0.000000 0.000000 0.000000 -19.505629 -39.400028 -50.928127 179.999978 -67.372740 180.000005 0.000000 0.000000 0.000000 2.107107 0.172488 -0.130753 0.604686 3.830637 9.160560 0.000000 0.000000 0.000000 -31.577720 4.135881 31.608572 179.999937 68.440531 -179.999950 0.000000 0.000000 0.000000 
0.352446 37.791733 -2.076920 0.000000 0.000000 0.000000 0.647111 31.777547 -1.485390 -19.327190 3.862493 17.279684 58.790423 -4.948365 2.597405 9.433486 0.846519 -11.362666 1.291550 -0.000005 0.000003 0.000000 0.000000 0.000000 0.647111 31.777547 -1.485390 -31.520148 -1.618466 -17.793551 38.047975 10.275753 0.373603 6.014411 -0.314244 10.850766 1.733234 -0.000026 0.000008 0.000000 0.000000 0.000000 0.647111 31.777547 -1.485390 2.763349 -0.263937 0.570080 2.922564 0.887164 -0.117088 0.000000 0.000000 0.000000 0.000000 0.000000 0.000000 2.923314 0.836399 -0.239897 -1.966379 -5.430181 1.242509 0.517588 -25.364319 3.003490 0.000000 0.000000 0.000000 2.923314 0.836399 -0.239897 0.897475 -4.782564 -1.205505 0.000000 0.000000 0.000000 -21.508365 -37.974394 -52.397841 -179.999978 -68.903700 -179.999964 0.000000 0.000000 0.000000 2.923314 0.836399 -0.239897 0.607272 4.073726 9.670695 0.000000 0.000000 0.000000 -31.001658 7.695745 32.288090 179.999937 71.552058 -179.999964 0.000000 0.000000 0.000000 
0.519701 38.528069 -2.488327 0.000000 0.000000 0.000000 0.314429 25.738376 -0.523043 -23.306509 4.178356 18.596122 58.372115 -4.203365 1.455642 7.620424 1.008714 -12.624845 0.387199 -0.000016 0.000008 0.000000 0.000000 0.000000 0.314429 25.738376 -0.523043 -29.300610 -0.387017 -18.124498 44.600326 11.547306 -0.892513 4.792753 -0.542434 11.311142 1.564731 -0.000015 0.000003 0.000000 0.000000 0.000000 0.314429 25.738376 -0.523043 2.523665 0.484711 0.318215 2.762111 1.341499 -0.494823 0.000000 0.000000 0.000000 0.000000 0.000000 0.000000 2.757108 1.309574 -0.592091 -0.644864 -4.679326 1.099954 1.172981 -22.036185 2.700013 0.000000 0.000000 0.000000 2.757108 1.309574 -0.592091 0.840820 -4.102903 -0.852960 0.000000 0.000000 0.000000 -20.084603 -35.848145 -53.771989 179.999991 -70.083833 179.999978 0.000000 0.000000 0.000000 2.757108 1.309574 -0.592091 0.608938 5.493247 10.201663 0.000000 0.000000 0.000000 -29.286584 9.570615 34.357549 179.999896 75.167871 -179.999923 0.000000 0.000000 0.000000 
0.905374 38.543724 -2.699118 0.000000 0.000000 0.000000 0.854194 20.525147 -0.327269 -26.821856 3.564914 20.839209 53.359726 -3.391515 1.217302 7.554828 1.030301 -15.651054 1.111596 -0.000013 0.000009 0.000000 0.000000 0.000000 0.854194 20.525147 -0.327269 -25.947576 -0.524098 -20.490730 48.516329 10.400186 -1.502172 0.949821 -1.188948 11.719025 1.376083 -0.000006 -0.000005 0.000000 0.000000 0.000000 0.854194 20.525147 -0.327269 1.825729 0.647769 0.524486 2.135735 1.432307 -0.569685 0.000000 0.000000 0.000000 0.000000 0.000000 0.000000 2.127125 1.416126 -0.646064 -0.095398 -3.825662 0.697799 1.531809 -18.386519 2.422324 0.000000 0.000000 0.000000 2.127125 1.416126 -0.646064 0.793629 -3.136945 -2.372797 0.000000 0.000000 0.000000 -16.711398 -33.471212 -53.572736 179.999964 -70.548348 179.999964 0.000000 0.000000 0.000000 2.127125 1.416126 -0.646064 0.583011 7.049654 11.152282 0.000000 0.000000 0.000000 -27.715463 10.973532 36.027090 179.999909 77.466612 -179.999937 0.000000 0.000000 0.000000 
